# xmcd
#
# Track frame offsets:
# 150
# 15060
# 34174
# 46674
# 61553
# 75732
# 89152
# 99303
# 115419
# 134272
# 152355
# 162852
#
# Disc length: 2344 seconds
#
#
# Revision: 0
# Processed by: cddbd v1.5.1PL0 Copyright (c) Steve Scherf et al.
# Submitted via: FreeRIP 2.942 
#
DISCID=7f09260c
DTITLE=Banda Estrela Guia - 24 Horas
DYEAR=2005
DGENRE=Bandinha
TTITLE0=24 Horas
TTITLE1=Como Deixar Deste Amor
TTITLE2=Diz Que Me Ama
TTITLE3=Estrela Guia
TTITLE4=Garota Bonita
TTITLE5=A Mesma Lua
TTITLE6=Pancadão(Vanera)
TTITLE7=Teus Beijos
TTITLE8=Retrato Seu(Kachaka)
TTITLE9=Sinal Verde(Valsa)
TTITLE10=Só Eu Amei
TTITLE11=Erro Fatal(Xote)
EXTD=
EXTT0=
EXTT1=
EXTT2=
EXTT3=
EXTT4=
EXTT5=
EXTT6=
EXTT7=
EXTT8=
EXTT9=
EXTT10=
EXTT11=
PLAYORDER=
